<?xml version="1.0" encoding="UTF-8"?>
<!DOCTYPE svg PUBLIC "-//W3C//DTD SVG 1.1//EN" "http://www.w3.org/Graphics/SVG/1.1/DTD/svg11.dtd">
<svg xmlns="http://www.w3.org/2000/svg" version="1.1" width="500px" height="500px" style="shape-rendering:geometricPrecision; text-rendering:geometricPrecision; image-rendering:optimizeQuality; fill-rule:evenodd; clip-rule:evenodd" xmlns:xlink="http://www.w3.org/1999/xlink">
<g><path style="opacity:1" fill="#fefefe" d="M -0.5,-0.5 C 166.167,-0.5 332.833,-0.5 499.5,-0.5C 499.5,166.167 499.5,332.833 499.5,499.5C 332.833,499.5 166.167,499.5 -0.5,499.5C -0.5,332.833 -0.5,166.167 -0.5,-0.5 Z"/></g>
<g><path style="opacity:1" fill="#f7f5e0" d="M 237.5,102.5 C 286.245,100.548 323.745,119.881 350,160.5C 359.505,176.188 364.839,193.188 366,211.5C 366.667,273.5 366.667,335.5 366,397.5C 365.5,398 365,398.5 364.5,399C 287.833,399.667 211.167,399.667 134.5,399C 134,398.5 133.5,398 133,397.5C 132.333,334.5 132.333,271.5 133,208.5C 140.563,157.555 168.729,123.722 217.5,107C 224.29,105.445 230.957,103.945 237.5,102.5 Z"/></g>
<g><path style="opacity:1" fill="#fcfbf4" d="M 305.5,123.5 C 277.123,108.552 247.457,105.385 216.5,114C 206.76,117.372 197.427,121.539 188.5,126.5C 215.677,108.018 245.344,102.851 277.5,111C 287.596,113.742 296.93,117.909 305.5,123.5 Z"/></g>
<g><path style="opacity:1" fill="#f4f2dc" d="M 305.5,123.5 C 309.553,126.883 313.886,129.883 318.5,132.5C 340.612,151.495 354.112,175.495 359,204.5C 360.784,267.222 360.95,329.888 359.5,392.5C 286.167,392.5 212.833,392.5 139.5,392.5C 139.5,333.833 139.5,275.167 139.5,216.5C 140.206,187.868 150.373,163.202 170,142.5C 176.064,136.928 182.231,131.595 188.5,126.5C 197.427,121.539 206.76,117.372 216.5,114C 247.457,105.385 277.123,108.552 305.5,123.5 Z"/></g>
<g><path style="opacity:1" fill="#7e7b75" d="M 256.5,133.5 C 262.705,133.219 264.205,135.886 261,141.5C 260.019,138.311 258.686,137.978 257,140.5C 256.503,138.19 256.337,135.857 256.5,133.5 Z"/></g>
<g><path style="opacity:1" fill="#696662" d="M 243.5,133.5 C 245.365,141.351 247.199,141.351 249,133.5C 249.758,135.769 249.591,137.936 248.5,140C 246.888,140.72 245.388,140.554 244,139.5C 243.505,137.527 243.338,135.527 243.5,133.5 Z"/></g>
<g><path style="opacity:1" fill="#dfddc9" d="M 258.5,135.5 C 260.337,135.639 260.67,136.306 259.5,137.5C 258.702,137.043 258.369,136.376 258.5,135.5 Z"/></g>
<g><path style="opacity:1" fill="#6e6b67" d="M 269.5,135.5 C 270.718,136.731 272.051,137.898 273.5,139C 272.54,140.419 271.707,141.919 271,143.5C 270.605,140.793 270.105,138.127 269.5,135.5 Z"/></g>
<g><path style="opacity:1" fill="#7c7973" d="M 230.5,134.5 C 231.482,135.141 232.482,135.807 233.5,136.5C 234.192,135.975 234.692,135.308 235,134.5C 235.093,137.007 235.926,139.174 237.5,141C 236.004,141.507 234.837,141.007 234,139.5C 233.667,139.833 233.333,140.167 233,140.5C 232.345,138.372 231.511,136.372 230.5,134.5 Z"/></g>
<g><path style="opacity:1" fill="#85827b" d="M 221.5,138.5 C 222.302,137.115 222.969,137.282 223.5,139C 225.274,143.212 223.941,145.212 219.5,145C 217.813,143.087 217.313,140.92 218,138.5C 219.009,140.025 219.509,141.692 219.5,143.5C 220.5,143.5 221.5,143.5 222.5,143.5C 222.784,141.585 222.451,139.919 221.5,138.5 Z"/></g>
<g><path style="opacity:1" fill="#73706b" d="M 206.5,143.5 C 208.054,144.914 209.388,146.581 210.5,148.5C 214.195,147.749 214.028,148.415 210,150.5C 208.295,148.423 207.128,146.09 206.5,143.5 Z"/></g>
<g><path style="opacity:1" fill="#84807a" d="M 289.5,143.5 C 291.045,144.23 291.878,145.563 292,147.5C 293.439,145.986 294.939,145.653 296.5,146.5C 295.081,148.336 293.914,150.336 293,152.5C 291.727,150.286 290.727,147.953 290,145.5C 289.5,146.5 289,147.5 288.5,148.5C 287.998,149.521 287.332,149.688 286.5,149C 287.639,147.22 288.639,145.386 289.5,143.5 Z"/></g>
<g><path style="opacity:1" fill="#7e7b75" d="M 191.5,152.5 C 192.164,153.648 192.331,154.981 192,156.5C 195.11,155.327 195.277,155.827 192.5,158C 194.085,158.085 195.418,158.251 196.5,158.5C 193.213,161.128 190.879,160.294 189.5,156C 189.978,154.697 190.645,153.531 191.5,152.5 Z"/></g>
<g><path style="opacity:1" fill="#827f78" d="M 302.5,150.5 C 306.326,151.48 306.326,152.313 302.5,153C 305.277,155.173 305.11,155.673 302,154.5C 301.493,155.996 301.993,157.163 303.5,158C 301.609,158.309 300.275,157.475 299.5,155.5C 300.763,153.971 301.763,152.305 302.5,150.5 Z"/></g>
<g><path style="opacity:1" fill="#87847c" d="M 311.5,158.5 C 313.117,159.589 313.95,161.256 314,163.5C 314.718,162.549 315.551,162.383 316.5,163C 312.6,169.267 310.767,168.767 311,161.5C 310.163,163.007 308.996,163.507 307.5,163C 309.041,161.629 310.375,160.129 311.5,158.5 Z"/></g>
<g><path style="opacity:1" fill="#76736e" d="M 182.5,160.5 C 183.434,161.568 183.768,162.901 183.5,164.5C 190.136,165.022 190.136,165.855 183.5,167C 185.905,168.615 185.905,169.281 183.5,169C 182.315,167.647 180.981,166.48 179.5,165.5C 180.274,164.289 181.107,164.289 182,165.5C 182.494,163.866 182.66,162.199 182.5,160.5 Z"/></g>
<g><path style="opacity:1" fill="#7c7872" d="M 173.5,171.5 C 178.805,172.241 180.139,174.741 177.5,179C 171.403,179.147 170.07,176.647 173.5,171.5 Z"/></g>
<g><path style="opacity:1" fill="#edebd5" d="M 173.5,173.5 C 177.161,173.35 178.161,174.85 176.5,178C 173.273,177.944 172.273,176.444 173.5,173.5 Z"/></g>
<g><path style="opacity:1" fill="#85817a" d="M 320.5,169.5 C 323.797,169.329 324.131,169.995 321.5,171.5C 322.246,172.736 322.579,174.07 322.5,175.5C 321.127,175.657 319.793,175.49 318.5,175C 320.192,173.599 320.859,171.766 320.5,169.5 Z"/></g>
<g><path style="opacity:1" fill="#6a6663" d="M 166.5,187.5 C 164.242,187.225 163.908,186.225 165.5,184.5C 166.689,183.571 168.022,183.238 169.5,183.5C 169.261,185.467 169.594,187.301 170.5,189C 168.86,189.348 167.527,188.848 166.5,187.5 Z"/></g>
<g><path style="opacity:1" fill="#88857d" d="M 328.5,178.5 C 329.645,179.793 329.311,180.959 327.5,182C 331.082,182.595 331.416,183.929 328.5,186C 330.313,185.954 331.979,186.12 333.5,186.5C 331.535,187.292 329.535,187.959 327.5,188.5C 326.41,187.609 326.41,186.609 327.5,185.5C 326.5,184.833 325.5,184.167 324.5,183.5C 325.857,181.814 327.19,180.148 328.5,178.5 Z"/></g>
<g><path style="opacity:1" fill="#e3e1cd" d="M 166.5,187.5 C 166.281,186.325 166.614,185.325 167.5,184.5C 168.798,186.052 168.465,187.052 166.5,187.5 Z"/></g>
<g><path style="opacity:1" fill="#5a5655" d="M 235.5,244.5 C 234.203,246.693 234.203,249.027 235.5,251.5C 236.107,251.376 236.44,251.043 236.5,250.5C 240.402,248.107 243.902,245.107 247,241.5C 247.044,239.24 246.211,237.24 244.5,235.5C 244.833,235.167 245.167,234.833 245.5,234.5C 248.628,238.618 251.294,238.285 253.5,233.5C 241.701,218.81 242.534,218.143 256,231.5C 257.563,230.275 258.73,228.775 259.5,227C 254.703,220.7 249.703,214.533 244.5,208.5C 256.148,207.501 267.814,207.168 279.5,207.5C 279.649,208.552 279.483,209.552 279,210.5C 267.965,221.867 257.298,233.534 247,245.5C 243.502,249.241 239.502,252.241 235,254.5C 234.103,260.806 233.603,267.139 233.5,273.5C 232.5,273.5 231.5,273.5 230.5,273.5C 230.422,266.485 230.089,259.485 229.5,252.5C 222.418,251.748 218.751,247.748 218.5,240.5C 218.675,234.811 221.342,230.811 226.5,228.5C 226.985,220.824 227.318,213.158 227.5,205.5C 229.66,220.394 231.16,235.394 232,250.5C 233.9,232.534 234.9,214.534 235,196.5C 234.196,195.196 233.029,194.529 231.5,194.5C 229.668,195.821 227.668,196.821 225.5,197.5C 225.297,195.61 225.963,194.11 227.5,193C 230.167,192.333 232.833,192.333 235.5,193C 236.701,193.903 237.535,195.069 238,196.5C 238.333,199.5 238.667,202.5 239,205.5C 243.643,209.347 244.643,214.014 242,219.5C 241.241,221.635 239.741,222.968 237.5,223.5C 236.232,230.444 235.566,237.444 235.5,244.5 Z"/></g>
<g><path style="opacity:1" fill="#4e494a" d="M 253.5,192.5 C 259.5,192.5 265.5,192.5 271.5,192.5C 271.5,196.167 271.5,199.833 271.5,203.5C 265.5,203.5 259.5,203.5 253.5,203.5C 253.5,199.833 253.5,196.167 253.5,192.5 Z"/></g>
<g><path style="opacity:1" fill="#bdbaab" d="M 268.5,201.5 C 268.5,199.5 268.5,197.5 268.5,195.5C 264.5,195.5 260.5,195.5 256.5,195.5C 256.5,197.5 256.5,199.5 256.5,201.5C 255.532,199.393 255.198,197.059 255.5,194.5C 260.167,194.5 264.833,194.5 269.5,194.5C 269.802,197.059 269.468,199.393 268.5,201.5 Z"/></g>
<g><path style="opacity:1" fill="#77746f" d="M 334.5,193.5 C 335.5,193.5 336.5,193.5 337.5,193.5C 337.33,194.822 337.663,195.989 338.5,197C 337.258,197.311 336.258,196.811 335.5,195.5C 335.331,196.397 334.998,197.397 334.5,198.5C 333.833,197.833 333.167,197.167 332.5,196.5C 331.904,197.716 331.737,199.049 332,200.5C 329.633,196.954 330.466,194.62 334.5,193.5 Z"/></g>
<g><path style="opacity:1" fill="#726e6a" d="M 161.5,198.5 C 163.053,196.615 165.053,195.615 167.5,195.5C 167.785,197.288 167.452,198.955 166.5,200.5C 166.251,199.418 166.085,198.085 166,196.5C 164.981,197.687 163.814,198.687 162.5,199.5C 161.893,199.376 161.56,199.043 161.5,198.5 Z"/></g>
<g><path style="opacity:1" fill="#f5f4dc" d="M 268.5,201.5 C 264.5,201.5 260.5,201.5 256.5,201.5C 256.5,199.5 256.5,197.5 256.5,195.5C 260.5,195.5 264.5,195.5 268.5,195.5C 268.5,197.5 268.5,199.5 268.5,201.5 Z"/></g>
<g><path style="opacity:1" fill="#726e6a" d="M 161.5,198.5 C 160.133,196.907 160.466,195.574 162.5,194.5C 162.833,194.667 163.167,194.833 163.5,195C 162.177,195.816 161.511,196.983 161.5,198.5 Z"/></g>
<g><path style="opacity:1" fill="#635f5d" d="M 230.5,198.5 C 231.5,198.5 232.5,198.5 233.5,198.5C 233.852,201.073 233.352,203.406 232,205.5C 231.308,204.975 230.808,204.308 230.5,203.5C 218.848,201.805 218.848,200.138 230.5,198.5 Z"/></g>
<g><path style="opacity:1" fill="#ecead5" d="M 237.5,208.5 C 238.496,208.414 239.329,208.748 240,209.5C 241.143,213.61 240.477,217.276 238,220.5C 237.501,216.514 237.334,212.514 237.5,208.5 Z"/></g>
<g><path style="opacity:1" fill="#66625f" d="M 157.5,206.5 C 158.158,207.398 158.824,208.398 159.5,209.5C 160.192,208.975 160.692,208.308 161,207.5C 161.582,210.668 162.582,211.001 164,208.5C 164.483,209.448 164.649,210.448 164.5,211.5C 162.473,211.662 160.473,211.495 158.5,211C 157.62,209.644 157.286,208.144 157.5,206.5 Z"/></g>
<g><path style="opacity:1" fill="#edebd5" d="M 248.5,210.5 C 251.64,209.359 254.973,209.192 258.5,210C 262.171,212.905 264.671,216.405 266,220.5C 264.649,222.019 263.149,223.352 261.5,224.5C 257.15,219.76 252.817,215.093 248.5,210.5 Z"/></g>
<g><path style="opacity:1" fill="#e6e4cf" d="M 262.5,209.5 C 275.453,207.018 277.62,209.684 269,217.5C 266.218,215.229 264.051,212.563 262.5,209.5 Z"/></g>
<g><path style="opacity:1" fill="#76736e" d="M 333.5,205.5 C 336.34,205.898 339.007,206.731 341.5,208C 339.246,209.377 337.08,210.877 335,212.5C 334.647,211.328 334.813,210.162 335.5,209C 334.571,207.923 333.904,206.756 333.5,205.5 Z"/></g>
<g><path style="opacity:1" fill="#fefefc" d="M 188.5,126.5 C 182.231,131.595 176.064,136.928 170,142.5C 150.373,163.202 140.206,187.868 139.5,216.5C 138.667,274.999 138.167,333.665 138,392.5C 137.333,330.167 137.333,267.833 138,205.5C 143.314,171.48 160.147,145.147 188.5,126.5 Z"/></g>
<g><path style="opacity:1" fill="#fefdfb" d="M 318.5,132.5 C 342.648,151.093 356.815,175.76 361,206.5C 361.667,268.5 361.667,330.5 361,392.5C 360.31,393.738 359.81,393.738 359.5,392.5C 360.95,329.888 360.784,267.222 359,204.5C 354.112,175.495 340.612,151.495 318.5,132.5 Z"/></g>
<g><path style="opacity:1" fill="#6c6865" d="M 162.5,219.5 C 163.434,220.568 163.768,221.901 163.5,223.5C 160.833,223.5 158.167,223.5 155.5,223.5C 155.286,221.856 155.62,220.356 156.5,219C 158.712,218.211 160.712,218.378 162.5,219.5 Z"/></g>
<g><path style="opacity:1" fill="#c1bfaf" d="M 162.5,219.5 C 162.5,220.5 162.5,221.5 162.5,222.5C 158.69,221.754 158.69,220.754 162.5,219.5 Z"/></g>
<g><path style="opacity:1" fill="#cac8b7" d="M 157.5,219.5 C 158.776,220.386 158.776,221.386 157.5,222.5C 156.438,221.575 156.438,220.575 157.5,219.5 Z"/></g>
<g><path style="opacity:1" fill="#5a5756" d="M 261.5,253.5 C 260.957,253.56 260.624,253.893 260.5,254.5C 263.645,255.803 266.645,255.803 269.5,254.5C 272.462,251.036 275.629,247.703 279,244.5C 278.651,248.346 276.818,251.513 273.5,254C 275.473,254.495 277.473,254.662 279.5,254.5C 279.5,255.5 279.5,256.5 279.5,257.5C 267.833,257.5 256.167,257.5 244.5,257.5C 244.351,256.448 244.517,255.448 245,254.5C 256.333,242.5 267.667,230.5 279,218.5C 279.667,219.5 279.667,220.5 279,221.5C 268.816,232.05 258.983,242.883 249.5,254C 252.167,254.667 254.833,254.667 257.5,254C 264.345,246.323 271.345,238.823 278.5,231.5C 279.583,232.365 279.749,233.365 279,234.5C 273.329,241.004 267.495,247.337 261.5,253.5 Z"/></g>
<g><path style="opacity:1" fill="#6d6a66" d="M 335.5,219.5 C 337.607,218.532 339.941,218.198 342.5,218.5C 342.5,220.167 342.5,221.833 342.5,223.5C 340.208,223.244 338.041,223.577 336,224.5C 336.152,222.924 336.985,221.591 338.5,220.5C 337.675,219.614 336.675,219.281 335.5,219.5 Z"/></g>
<g><path style="opacity:1" fill="#f1efd9" d="M 339.5,219.5 C 341.465,219.948 341.798,220.948 340.5,222.5C 339.614,221.675 339.281,220.675 339.5,219.5 Z"/></g>
<g><path style="opacity:1" fill="#edead5" d="M 225.5,231.5 C 226.5,231.5 227.5,231.5 228.5,231.5C 228.347,237.869 228.68,244.203 229.5,250.5C 225.808,250.062 223.308,248.062 222,244.5C 220.539,239.284 221.705,234.95 225.5,231.5 Z"/></g>
<g><path style="opacity:1" fill="#949087" d="M 235.5,244.5 C 235.205,246.735 235.539,248.735 236.5,250.5C 236.44,251.043 236.107,251.376 235.5,251.5C 234.203,249.027 234.203,246.693 235.5,244.5 Z"/></g>
<g><path style="opacity:1" fill="#9d9a90" d="M 261.5,253.5 C 263.948,254.473 266.615,254.806 269.5,254.5C 266.645,255.803 263.645,255.803 260.5,254.5C 260.624,253.893 260.957,253.56 261.5,253.5 Z"/></g>
<g><path style="opacity:1" fill="#5b5755" d="M 253.5,261.5 C 259.5,261.5 265.5,261.5 271.5,261.5C 271.5,265.5 271.5,269.5 271.5,273.5C 265.5,273.5 259.5,273.5 253.5,273.5C 253.5,269.5 253.5,265.5 253.5,261.5 Z"/></g>
<g><path style="opacity:1" fill="#928f86" d="M 175.5,264.5 C 177.288,264.215 178.955,264.548 180.5,265.5C 179.045,267.22 178.212,269.22 178,271.5C 177.552,268.969 176.719,266.636 175.5,264.5 Z"/></g>
<g><path style="opacity:1" fill="#f5f4dc" d="M 256.5,264.5 C 260.5,264.5 264.5,264.5 268.5,264.5C 268.5,266.5 268.5,268.5 268.5,270.5C 264.5,270.5 260.5,270.5 256.5,270.5C 256.5,268.5 256.5,266.5 256.5,264.5 Z"/></g>
<g><path style="opacity:1" fill="#8e8b83" d="M 156.5,264.5 C 158.288,264.215 159.955,264.548 161.5,265.5C 160.624,266.251 159.624,266.751 158.5,267C 160.991,267.626 160.991,268.459 158.5,269.5C 159.376,270.251 160.376,270.751 161.5,271C 159.866,271.494 158.199,271.66 156.5,271.5C 156.5,269.167 156.5,266.833 156.5,264.5 Z"/></g>
<g><path style="opacity:1" fill="#969389" d="M 167.5,264.5 C 172.778,265.605 172.612,266.605 167,267.5C 166.53,266.423 166.697,265.423 167.5,264.5 Z"/></g>
<g><path style="opacity:1" fill="#555150" d="M 315.5,264.5 C 316.216,266.556 316.883,268.723 317.5,271C 316.5,271.667 315.5,271.667 314.5,271C 315.169,268.738 315.502,266.571 315.5,264.5 Z"/></g>
<g><path style="opacity:1" fill="#74706c" d="M 343.5,265.5 C 345.326,267.437 345.493,269.437 344,271.5C 343.228,270.151 342.061,269.318 340.5,269C 341.71,267.961 342.71,266.794 343.5,265.5 Z"/></g>
<g><path style="opacity:1" fill="#89867e" d="M 323.5,264.5 C 328.165,265.849 328.665,268.182 325,271.5C 322.697,269.453 322.197,267.119 323.5,264.5 Z"/></g>
<g><path style="opacity:1" fill="#89867e" d="M 332.5,264.5 C 337.165,265.849 337.665,268.182 334,271.5C 331.697,269.453 331.197,267.119 332.5,264.5 Z"/></g>
<g><path style="opacity:1" fill="#7d7973" d="M 169.5,268.5 C 171.549,268.706 171.883,269.539 170.5,271C 169.056,271.781 167.723,271.614 166.5,270.5C 166.938,269.494 167.604,269.494 168.5,270.5C 169.298,270.043 169.631,269.376 169.5,268.5 Z"/></g>
<g><path style="opacity:1" fill="#a7a499" d="M 256.5,264.5 C 256.5,266.5 256.5,268.5 256.5,270.5C 260.5,270.5 264.5,270.5 268.5,270.5C 264.366,271.485 260.032,271.818 255.5,271.5C 255.198,268.941 255.532,266.607 256.5,264.5 Z"/></g>
<g><path style="opacity:1" fill="#524e4e" d="M 191.5,325.5 C 191.5,316.833 191.5,308.167 191.5,299.5C 189.5,299.5 187.5,299.5 185.5,299.5C 185.5,298.167 185.5,296.833 185.5,295.5C 191.167,295.5 196.833,295.5 202.5,295.5C 202.5,296.833 202.5,298.167 202.5,299.5C 200.5,299.5 198.5,299.5 196.5,299.5C 196.5,308.167 196.5,316.833 196.5,325.5C 194.833,325.5 193.167,325.5 191.5,325.5 Z"/></g>
<g><path style="opacity:1" fill="#524e4e" d="M 208.5,295.5 C 212.182,295.335 215.848,295.501 219.5,296C 224.069,298.541 225.569,302.375 224,307.5C 223.028,309.305 221.861,310.972 220.5,312.5C 222.242,316.725 223.576,321.059 224.5,325.5C 222.833,325.5 221.167,325.5 219.5,325.5C 218.656,321.126 217.656,316.793 216.5,312.5C 215.5,312.5 214.5,312.5 213.5,312.5C 213.5,316.833 213.5,321.167 213.5,325.5C 211.833,325.5 210.167,325.5 208.5,325.5C 208.5,315.5 208.5,305.5 208.5,295.5 Z"/></g>
<g><path style="opacity:1" fill="#514d4d" d="M 230.5,295.5 C 235.5,295.5 240.5,295.5 245.5,295.5C 245.5,296.833 245.5,298.167 245.5,299.5C 242.167,299.5 238.833,299.5 235.5,299.5C 235.5,302.5 235.5,305.5 235.5,308.5C 237.5,308.5 239.5,308.5 241.5,308.5C 241.5,309.833 241.5,311.167 241.5,312.5C 239.5,312.5 237.5,312.5 235.5,312.5C 235.5,315.5 235.5,318.5 235.5,321.5C 238.833,321.5 242.167,321.5 245.5,321.5C 245.5,322.833 245.5,324.167 245.5,325.5C 240.5,325.5 235.5,325.5 230.5,325.5C 230.5,315.5 230.5,305.5 230.5,295.5 Z"/></g>
<g><path style="opacity:1" fill="#534f4f" d="M 261.5,310.5 C 261.987,311.473 262.487,312.473 263,313.5C 263.499,307.509 263.666,301.509 263.5,295.5C 265.167,295.5 266.833,295.5 268.5,295.5C 268.5,305.5 268.5,315.5 268.5,325.5C 266.5,325.5 264.5,325.5 262.5,325.5C 261.033,320.433 259.367,315.433 257.5,310.5C 257.539,309.244 257.039,308.244 256,307.5C 255.501,313.491 255.334,319.491 255.5,325.5C 254.167,325.5 252.833,325.5 251.5,325.5C 251.5,315.5 251.5,305.5 251.5,295.5C 253.467,295.261 255.301,295.594 257,296.5C 258.607,301.154 260.107,305.82 261.5,310.5 Z"/></g>
<g><path style="opacity:1" fill="#c2bfb0" d="M 263.5,295.5 C 263.666,301.509 263.499,307.509 263,313.5C 262.487,312.473 261.987,311.473 261.5,310.5C 262.167,305.5 262.833,300.5 263.5,295.5 Z"/></g>
<g><path style="opacity:1" fill="#4e4a4b" d="M 275.5,295.5 C 287.552,293.551 292.552,298.551 290.5,310.5C 292.552,322.449 287.552,327.449 275.5,325.5C 275.5,315.5 275.5,305.5 275.5,295.5 Z"/></g>
<g><path style="opacity:1" fill="#534f4f" d="M 296.5,295.5 C 298.467,295.261 300.301,295.594 302,296.5C 303,299.833 304,303.167 305,306.5C 306,303.167 307,299.833 308,296.5C 309.814,295.24 311.647,295.24 313.5,296.5C 308.587,305.571 306.587,315.238 307.5,325.5C 305.833,325.5 304.167,325.5 302.5,325.5C 302.666,320.821 302.499,316.155 302,311.5C 300.258,306.106 298.424,300.773 296.5,295.5 Z"/></g>
<g><path style="opacity:1" fill="#d0cebd" d="M 185.5,299.5 C 187.5,299.5 189.5,299.5 191.5,299.5C 191.5,308.167 191.5,316.833 191.5,325.5C 190.507,317.35 190.174,309.017 190.5,300.5C 188.585,300.784 186.919,300.451 185.5,299.5 Z"/></g>
<g><path style="opacity:1" fill="#edebd5" d="M 213.5,299.5 C 219.191,299.554 220.858,302.221 218.5,307.5C 216.955,308.452 215.288,308.785 213.5,308.5C 213.5,305.5 213.5,302.5 213.5,299.5 Z"/></g>
<g><path style="opacity:1" fill="#a19e93" d="M 284.5,300.5 C 283.167,300.5 281.833,300.5 280.5,300.5C 280.5,307.167 280.5,313.833 280.5,320.5C 281.833,320.5 283.167,320.5 284.5,320.5C 283.081,321.451 281.415,321.784 279.5,321.5C 279.5,314.167 279.5,306.833 279.5,299.5C 281.415,299.216 283.081,299.549 284.5,300.5 Z"/></g>
<g><path style="opacity:1" fill="#e9e7d2" d="M 284.5,300.5 C 285.222,300.918 285.722,301.584 286,302.5C 286.667,307.833 286.667,313.167 286,318.5C 285.722,319.416 285.222,320.082 284.5,320.5C 283.167,320.5 281.833,320.5 280.5,320.5C 280.5,313.833 280.5,307.167 280.5,300.5C 281.833,300.5 283.167,300.5 284.5,300.5 Z"/></g>
<g><path style="opacity:1" fill="#a7a599" d="M 257.5,310.5 C 256.833,315.5 256.167,320.5 255.5,325.5C 255.334,319.491 255.501,313.491 256,307.5C 257.039,308.244 257.539,309.244 257.5,310.5 Z"/></g>
<g><path style="opacity:1" fill="#534f4f" d="M 311.5,338.5 C 319.073,337.087 322.74,340.087 322.5,347.5C 321.167,347.5 319.833,347.5 318.5,347.5C 318.371,343.515 316.537,342.182 313,343.5C 312.333,345.167 312.333,346.833 313,348.5C 317,351.167 320.333,354.5 323,358.5C 323.452,366.708 319.619,369.875 311.5,368C 308.679,365.859 307.346,363.025 307.5,359.5C 309.167,359.5 310.833,359.5 312.5,359.5C 311.899,363.909 313.566,365.242 317.5,363.5C 318.833,361.833 318.833,360.167 317.5,358.5C 314.759,356.047 311.925,353.714 309,351.5C 306.415,346.318 307.248,341.985 311.5,338.5 Z"/></g>
<g><path style="opacity:1" fill="#4f4b4c" d="M 175.5,338.5 C 181.167,338.5 186.833,338.5 192.5,338.5C 192.5,339.833 192.5,341.167 192.5,342.5C 190.5,342.5 188.5,342.5 186.5,342.5C 186.5,351.167 186.5,359.833 186.5,368.5C 184.833,368.5 183.167,368.5 181.5,368.5C 181.5,359.833 181.5,351.167 181.5,342.5C 179.5,342.5 177.5,342.5 175.5,342.5C 175.5,341.167 175.5,339.833 175.5,338.5 Z"/></g>
<g><path style="opacity:1" fill="#504c4c" d="M 198.5,338.5 C 200.167,338.5 201.833,338.5 203.5,338.5C 203.5,342.833 203.5,347.167 203.5,351.5C 205.5,351.5 207.5,351.5 209.5,351.5C 209.5,347.167 209.5,342.833 209.5,338.5C 211.167,338.5 212.833,338.5 214.5,338.5C 214.5,348.5 214.5,358.5 214.5,368.5C 212.833,368.5 211.167,368.5 209.5,368.5C 209.5,364.167 209.5,359.833 209.5,355.5C 207.5,355.5 205.5,355.5 203.5,355.5C 203.5,359.833 203.5,364.167 203.5,368.5C 201.833,368.5 200.167,368.5 198.5,368.5C 198.5,358.5 198.5,348.5 198.5,338.5 Z"/></g>
<g><path style="opacity:1" fill="#545050" d="M 221.5,338.5 C 225.182,338.335 228.848,338.501 232.5,339C 238.712,344.116 239.045,349.616 233.5,355.5C 234.833,359.5 236.167,363.5 237.5,367.5C 235.833,368.833 234.167,368.833 232.5,367.5C 228.013,351.262 226.013,351.595 226.5,368.5C 224.833,368.5 223.167,368.5 221.5,368.5C 221.5,358.5 221.5,348.5 221.5,338.5 Z"/></g>
<g><path style="opacity:1" fill="#4e4a4b" d="M 257.5,342.5 C 254.167,342.5 250.833,342.5 247.5,342.5C 247.19,345.713 247.523,348.713 248.5,351.5C 250.5,351.5 252.5,351.5 254.5,351.5C 254.5,352.833 254.5,354.167 254.5,355.5C 252.5,355.5 250.5,355.5 248.5,355.5C 247.523,358.287 247.19,361.287 247.5,364.5C 250.833,364.5 254.167,364.5 257.5,364.5C 257.5,365.833 257.5,367.167 257.5,368.5C 252.833,368.5 248.167,368.5 243.5,368.5C 243.5,358.5 243.5,348.5 243.5,338.5C 248.167,338.5 252.833,338.5 257.5,338.5C 257.5,339.833 257.5,341.167 257.5,342.5 Z"/></g>
<g><path style="opacity:1" fill="#545050" d="M 268.5,338.5 C 270.5,338.5 272.5,338.5 274.5,338.5C 276.704,348.449 278.704,358.449 280.5,368.5C 278.833,368.5 277.167,368.5 275.5,368.5C 275.5,366.833 275.5,365.167 275.5,363.5C 272.833,363.5 270.167,363.5 267.5,363.5C 267.5,365.167 267.5,366.833 267.5,368.5C 265.833,368.5 264.167,368.5 262.5,368.5C 264.296,358.449 266.296,348.449 268.5,338.5 Z"/></g>
<g><path style="opacity:1" fill="#545050" d="M 285.5,338.5 C 297.816,335.99 303.149,340.823 301.5,353C 303.6,365.733 298.267,370.899 285.5,368.5C 285.5,358.5 285.5,348.5 285.5,338.5 Z"/></g>
<g><path style="opacity:1" fill="#a09d92" d="M 230.5,343.5 C 229.167,343.5 227.833,343.5 226.5,343.5C 226.5,346.167 226.5,348.833 226.5,351.5C 225.523,348.713 225.19,345.713 225.5,342.5C 227.415,342.216 229.081,342.549 230.5,343.5 Z"/></g>
<g><path style="opacity:1" fill="#eeecd6" d="M 230.5,343.5 C 232.441,345.011 232.941,347.011 232,349.5C 230.556,351.155 228.722,351.822 226.5,351.5C 226.5,348.833 226.5,346.167 226.5,343.5C 227.833,343.5 229.167,343.5 230.5,343.5 Z"/></g>
<g><path style="opacity:1" fill="#a4a196" d="M 257.5,342.5 C 254.713,343.477 251.713,343.81 248.5,343.5C 248.5,346.167 248.5,348.833 248.5,351.5C 247.523,348.713 247.19,345.713 247.5,342.5C 250.833,342.5 254.167,342.5 257.5,342.5 Z"/></g>
<g><path style="opacity:1" fill="#c3c1b1" d="M 294.5,343.5 C 293.5,343.5 292.5,343.5 291.5,343.5C 291.5,350.167 291.5,356.833 291.5,363.5C 292.5,363.5 293.5,363.5 294.5,363.5C 293.432,364.434 292.099,364.768 290.5,364.5C 290.5,357.167 290.5,349.833 290.5,342.5C 292.099,342.232 293.432,342.566 294.5,343.5 Z"/></g>
<g><path style="opacity:1" fill="#f5f3dc" d="M 294.5,343.5 C 295.117,343.611 295.617,343.944 296,344.5C 296.667,350.5 296.667,356.5 296,362.5C 295.617,363.056 295.117,363.389 294.5,363.5C 293.5,363.5 292.5,363.5 291.5,363.5C 291.5,356.833 291.5,350.167 291.5,343.5C 292.5,343.5 293.5,343.5 294.5,343.5 Z"/></g>
<g><path style="opacity:1" fill="#e2e0cb" d="M 270.5,346.5 C 271.725,347.152 272.392,348.319 272.5,350C 273.107,353.143 273.441,356.31 273.5,359.5C 272.167,359.5 270.833,359.5 269.5,359.5C 269.586,355.143 269.92,350.81 270.5,346.5 Z"/></g>
<g><path style="opacity:1" fill="#b6b4a6" d="M 248.5,355.5 C 248.5,358.167 248.5,360.833 248.5,363.5C 251.713,363.19 254.713,363.523 257.5,364.5C 254.167,364.5 250.833,364.5 247.5,364.5C 247.19,361.287 247.523,358.287 248.5,355.5 Z"/></g>
</svg>
